<svg width="77" height="69" viewBox="0 0 77 69" fill="none" xmlns="http://www.w3.org/2000/svg">
<g clip-path="url(#clip0_1_55)">
<path d="M0 10.6919C0 18.2729 15.0061 20.5283 15.0061 20.5283C15.0061 39.6142 11.4385 57.4477 11.4385 57.4477C11.4385 57.4477 13.3256 68.9997 38.501 68.9997C63.6764 68.9997 65.5634 57.4477 65.5634 57.4477C65.5634 57.4477 62.0392 39.6181 62.0392 20.5322C62.0392 20.5322 77.002 18.6027 77.002 10.6919C77.002 4.61853 64.7232 1.13231 50.5672 0.211682C18.5815 -1.20361 0 4.67742 0 10.6919ZM59.4575 6.84845C59.1348 6.7503 58.9616 6.6973 58.9616 6.6973C58.9616 6.6973 59.1407 6.72282 59.4752 6.77189C59.8117 6.81704 60.2977 6.91126 60.9176 7.04082C61.5374 7.17234 62.2891 7.34704 63.1313 7.64149C63.5524 7.78674 63.9971 7.96145 64.4517 8.197C64.9003 8.43845 65.3844 8.70934 65.7838 9.204C65.9767 9.45919 66.1439 9.76737 66.14 10.1894L66.1321 10.2934C66.1282 10.3327 66.1144 10.3955 66.1046 10.4466C66.081 10.5565 66.0475 10.6311 66.0101 10.7194C65.9334 10.8863 65.8291 11.0296 65.7209 11.1611C65.2683 11.6675 64.7075 11.9796 64.1348 12.2662C62.9798 12.8217 61.7086 13.2045 60.3902 13.5421C57.7456 14.2037 54.8845 14.6532 52.0155 14.9888C49.1445 15.3147 46.2638 15.5169 43.5601 15.6288C42.2082 15.6877 40.8997 15.7132 39.66 15.725C38.4183 15.7387 37.2475 15.7308 36.1653 15.6896C34.0027 15.6131 32.2042 15.4717 30.9488 15.3383C30.321 15.2735 29.8271 15.2244 29.4926 15.1773C29.1581 15.1321 28.979 15.1086 28.979 15.1086C28.979 15.1086 31.8559 15.087 36.1731 15.0556C37.2495 15.0418 38.4164 15.0281 39.6501 15.0124C40.8839 14.9888 42.1826 14.9457 43.5266 14.8868C46.2146 14.767 49.0776 14.555 51.9269 14.2213C54.7743 13.8935 57.6137 13.4597 60.2072 12.8178C61.4981 12.49 62.7417 12.121 63.822 11.6165C64.3533 11.3613 64.861 11.0649 65.1876 10.7017C65.2643 10.6114 65.3312 10.5192 65.3745 10.4269C65.3923 10.3837 65.4178 10.3268 65.4218 10.2993C65.4257 10.2797 65.4316 10.2758 65.4355 10.2444L65.4434 10.1403C65.4493 9.99704 65.3785 9.77719 65.2466 9.60445C64.979 9.24326 64.5697 8.94489 64.1663 8.70737C63.761 8.46593 63.3438 8.2716 62.9522 8.09493C62.1592 7.75141 61.441 7.50015 60.8467 7.29404C60.2525 7.09186 59.7763 6.95837 59.4536 6.85434L59.4575 6.84845ZM27.2159 5.42923L26.5115 2.09416L63.5268 4.05908C70.6324 6.28901 75.111 8.23037 75.111 10.6919C75.111 10.7076 75.109 10.7233 75.109 10.7371C74.987 10.3543 74.802 10.0206 74.6131 9.74774C74.5265 9.628 74.4498 9.5063 74.3632 9.4003C74.2707 9.30019 74.1802 9.204 74.0956 9.11174C73.9303 8.92133 73.7532 8.77608 73.5958 8.64259C73.2928 8.36385 73.0133 8.197 72.8362 8.06941C72.6572 7.94574 72.5608 7.88097 72.5608 7.88097C72.5608 7.88097 72.6434 7.96341 72.7969 8.11848C72.9504 8.27356 73.1826 8.49145 73.4364 8.80159C73.5682 8.95274 73.7158 9.11763 73.8437 9.31982C73.9126 9.416 73.9834 9.51807 74.0562 9.62407C74.1231 9.73204 74.1782 9.85178 74.2432 9.96956C74.4852 10.4426 74.68 11.0256 74.5954 11.6322C74.5147 12.2368 74.1546 12.8257 73.6371 13.3419C73.1137 13.8562 72.4447 14.3038 71.7048 14.6944C70.9649 15.087 70.1581 15.4227 69.3238 15.7367C68.4836 16.041 67.6178 16.3217 66.7343 16.5533C65.8566 16.8085 64.9652 17.0166 64.0837 17.2129C63.6409 17.3051 63.2021 17.3974 62.7692 17.4877C62.3344 17.5701 61.9034 17.6526 61.4784 17.7331C60.6283 17.8783 59.8058 18.0216 59.0226 18.1433C58.2375 18.2552 57.4937 18.3612 56.8089 18.4594C56.1202 18.5477 55.4886 18.6301 54.9297 18.7008C54.3689 18.7675 53.8789 18.8264 53.4756 18.8735C52.6668 18.9638 52.2044 19.0247 52.2044 19.0247C52.2044 19.0247 52.6688 19.0581 53.4834 19.0954C54.2981 19.1248 55.465 19.1503 56.864 19.0993C57.5645 19.0777 58.3221 19.0384 59.121 18.9756C59.3178 18.9599 59.5224 18.9383 59.7251 18.9207C37.8595 21.5294 19.7975 19.3034 16.4287 18.8343L15.2933 18.6635C11.8163 18.1414 1.89297 15.5542 1.89297 10.69C1.89297 8.22841 6.14922 5.38801 13.4771 4.05712C13.4771 4.05712 45.5691 -1.57854 63.5308 4.05712L27.2159 5.42923ZM49.6404 4.17882L28.1959 4.80501C17.9105 6.00241 9.59278 8.00856 9.59278 10.1443C9.59278 11.6636 13.2882 13.0278 19.1364 13.9583C17.8711 13.8071 16.6865 13.6383 15.6003 13.446C13.9041 13.1358 12.4381 12.7943 11.2772 12.384C10.1201 11.9757 9.25236 11.5124 8.81355 11.0276C8.58726 10.792 8.47706 10.5604 8.42787 10.3975C8.37671 10.2346 8.38261 10.1403 8.37671 10.1423C8.38261 10.1423 8.36097 10.2326 8.38655 10.4073C8.41213 10.58 8.48493 10.845 8.68958 11.1257C9.08707 11.6989 9.91746 12.3271 11.0647 12.8806C12.2099 13.442 13.6641 13.9818 15.3642 14.4549C17.0624 14.9358 19.0045 15.3755 21.1415 15.7387C23.2765 16.1136 25.6024 16.4297 28.0719 16.6554C30.5414 16.889 33.1507 17.0657 35.8544 17.1383C38.558 17.2148 41.3601 17.205 44.2016 17.0774C47.045 16.9597 49.9297 16.7202 52.8085 16.3629C55.6853 15.9841 58.5583 15.509 61.3682 14.7258C62.7771 14.3273 64.1644 13.8778 65.5457 13.126C65.8921 12.9317 66.2384 12.7138 66.5847 12.437C66.9271 12.1524 67.2911 11.8147 67.5784 11.2671C67.6493 11.1316 67.7103 10.9785 67.7594 10.8156C67.8126 10.6566 67.8559 10.3131 67.848 10.2993C67.8677 9.93619 67.8086 9.60248 67.6965 9.30411C67.4663 8.71326 67.1121 8.32656 66.7815 8.02819C66.1065 7.43734 65.4336 7.1056 64.7744 6.8033C64.1152 6.50886 63.4599 6.28508 62.8125 6.08682C61.5177 5.69816 60.2525 5.42138 59.0187 5.19171C56.5531 4.72649 54.2135 4.48897 52.0548 4.32605C51.2185 4.25931 50.4177 4.21416 49.6365 4.17686C49.6365 4.17686 36.7694 3.8039 28.1919 4.80305L49.6404 4.17882ZM63.2986 54.407C63.4186 55.3159 63.4875 55.8361 63.4875 55.8361C63.4875 55.8361 63.3537 55.3277 63.1549 54.4326C62.964 53.5355 62.6748 52.2556 62.3973 50.7069C62.1061 49.16 61.8129 47.3482 61.5335 45.401C61.4076 44.4254 61.2521 43.4204 61.1419 42.3937C61.0219 41.3691 60.9038 40.3267 60.8015 39.2824C60.6972 38.2381 60.6146 37.1919 60.5339 36.1633C60.4414 35.1347 60.4001 34.1179 60.343 33.1364C60.2781 32.1549 60.2564 31.2029 60.2308 30.3019C60.2171 29.8504 60.2053 29.4127 60.1935 28.9887C60.1935 28.5647 60.1895 28.1544 60.1895 27.7618C60.1856 26.9747 60.1895 26.2543 60.1994 25.6143C60.219 24.9744 60.2348 24.4189 60.2485 23.9596C60.2781 23.0429 60.3056 22.5188 60.3056 22.5188C60.3056 22.5188 60.345 23.0429 60.3961 23.9576C60.4197 24.415 60.4493 24.9705 60.4807 25.6085C60.5221 26.2445 60.5713 26.9629 60.6224 27.7461C60.6657 28.5293 60.7287 29.3773 60.7936 30.2744C60.8605 31.1695 60.9333 32.1157 61.0061 33.0932C61.0829 34.0708 61.1675 35.0797 61.26 36.1044C61.3466 37.1291 61.441 38.1714 61.5512 39.2098C61.7381 41.2925 61.9802 43.3693 62.1888 45.3185C62.4131 47.2658 62.6256 49.0835 62.8204 50.6421C63.0132 52.2007 63.1687 53.5002 63.2946 54.407H63.2986ZM48.9005 66.3202C47.2594 66.599 45.5514 66.811 43.81 66.9268C43.5325 66.9484 43.2511 66.9641 42.9697 66.9818C42.9304 66.9837 42.891 66.9876 42.8497 66.9896C42.6195 67.0033 42.3893 67.0151 42.1571 67.0269C41.2184 67.074 40.2385 67.1035 39.2153 67.1133C38.989 67.1172 38.7607 67.1211 38.5364 67.1251C38.3298 67.1231 38.1251 67.1192 37.9185 67.1152C35.815 67.0995 33.8925 67.0014 32.1373 66.8345C31.9503 66.8169 31.7654 66.7972 31.5804 66.7776C31.3994 66.758 31.2203 66.7384 31.0432 66.7187C30.8681 66.6991 30.693 66.6795 30.5178 66.6559C30.14 66.6088 29.772 66.5578 29.4119 66.5028C29.4021 66.5028 29.3923 66.5008 29.3844 66.4989C28.5875 66.3791 27.8318 66.2476 27.1136 66.1004C26.9267 66.0631 26.7417 66.0219 26.5567 65.9826C26.4682 65.963 26.3816 65.9434 26.295 65.9257C25.3249 65.7078 24.3824 65.4624 23.4851 65.1798C22.0231 64.7224 20.6771 64.1669 19.4886 63.5485C19.0793 63.3385 18.6976 63.1147 18.3296 62.889C18.3079 62.8753 18.2883 62.8635 18.2686 62.8497C18.0757 62.73 17.8849 62.6083 17.7019 62.4846C17.4559 62.3197 17.2257 62.1548 17.0112 61.9919C14.4098 60.0231 13.5952 58.0974 13.3709 57.3947C13.8844 54.6799 16.6334 39.3963 16.8754 22.8328C19.9608 23.7201 29.6186 26.164 42.952 26.3897C40.8229 26.4408 38.5462 26.4388 36.2676 26.3485C35.144 26.3092 34.0224 26.2445 32.9185 26.1699C32.3675 26.1267 31.8185 26.0815 31.2793 26.0403C30.7402 25.9873 30.205 25.9363 29.6815 25.8852C29.1581 25.8244 28.6426 25.7655 28.1388 25.7066C27.6351 25.6379 27.1431 25.5712 26.663 25.5083C25.7067 25.3651 24.8015 25.2257 23.9711 25.0706C23.1368 24.9312 22.3812 24.7605 21.7062 24.6309C21.0372 24.4778 20.4528 24.3443 19.9707 24.2363C19.0144 23.9929 18.4673 23.8555 18.4673 23.8555C18.4673 23.8555 19.0065 24.0224 19.951 24.3149C20.4272 24.4503 21.0038 24.6132 21.6669 24.8017C22.334 24.9685 23.0837 25.1786 23.9121 25.3611C24.7366 25.5594 25.6358 25.7478 26.5902 25.9422C27.0684 26.0325 27.5583 26.1247 28.0621 26.2189C28.5658 26.3033 29.0814 26.3917 29.6048 26.48C30.1302 26.5585 30.6634 26.639 31.2046 26.7215C31.7457 26.7921 32.2947 26.8648 32.8476 26.9393C33.9555 27.0728 35.083 27.1965 36.2125 27.2966C40.7304 27.7088 45.2779 27.7873 48.6861 27.7127C50.091 27.6853 51.2992 27.6362 52.2359 27.591C52.2674 29.7974 52.3303 32.9303 52.4504 36.548C52.4366 36.552 52.4208 36.5539 52.4071 36.5578C52.1355 36.603 51.86 36.6501 51.5806 36.6972C51.0218 36.7914 50.4452 36.8896 49.8588 36.9897C49.2665 37.0663 48.6624 37.1448 48.0465 37.2233C47.7376 37.2626 47.4287 37.3038 47.1138 37.343C46.8009 37.3784 46.4822 37.4 46.1654 37.4314C45.5278 37.4883 44.8804 37.5452 44.2311 37.6021C42.9264 37.6905 41.5963 37.7376 40.2641 37.7945C38.9319 37.7906 37.5978 37.8181 36.2833 37.7867C34.9708 37.7278 33.6761 37.6866 32.4226 37.6139C31.1711 37.504 29.9629 37.398 28.8157 37.2979C27.6685 37.188 26.5941 37.0113 25.5945 36.8857C24.5969 36.7502 23.6779 36.6403 22.8771 36.4754C22.0722 36.3282 21.3698 36.1986 20.7912 36.0926C19.6322 35.8806 18.9711 35.7589 18.9711 35.7589C18.9711 35.7589 19.6204 35.9317 20.7598 36.234C21.3304 36.3851 22.0211 36.5696 22.8141 36.7797C23.6051 37.0093 24.5123 37.1899 25.502 37.4058C26.4918 37.61 27.5603 37.873 28.7036 38.0752C29.8508 38.2676 31.059 38.4698 32.3104 38.6798C33.5678 38.8526 34.8725 38.9958 36.1967 39.1607C37.525 39.2962 38.8808 39.3747 40.2365 39.4866C41.5943 39.5376 42.956 39.5965 44.296 39.6102C44.967 39.6044 45.6341 39.5985 46.2913 39.5926C46.6199 39.5887 46.9485 39.5906 47.2732 39.5788C47.5979 39.5631 47.9206 39.5474 48.2413 39.5317C48.8828 39.5003 49.5125 39.4689 50.1284 39.4375C50.7443 39.3825 51.3465 39.3295 51.9328 39.2765C52.1414 39.2589 52.3441 39.2393 52.5468 39.2216C52.8557 47.1696 53.4401 56.7587 54.5499 64.0452C55.5338 63.7488 56.4626 63.4229 57.3166 63.0617C58.5091 62.5514 59.5598 61.988 60.4276 61.3893C61.2934 60.7906 61.9861 60.1781 62.4957 59.6167C62.9995 59.0494 63.334 58.5489 63.5288 58.1897C63.7216 57.8285 63.7846 57.6165 63.7846 57.6165C63.7846 57.6165 63.7452 57.8344 63.5898 58.2171C63.4284 58.598 63.1529 59.1476 62.6827 59.7679C62.2104 60.3862 61.5571 61.0831 60.7031 61.7583C59.855 62.4395 58.8101 63.101 57.6078 63.6879C56.4075 64.2807 55.0537 64.8127 53.5877 65.2524C52.1217 65.6941 50.5475 66.0552 48.9064 66.3281L48.9005 66.3202Z" fill="white"/>
<path d="M16.4819 49.5412C16.6295 48.6971 16.783 47.8059 16.9148 46.8794C17.0407 45.9529 17.2021 44.9989 17.3044 44.0233C17.4205 43.0477 17.5366 42.0564 17.635 41.0651C17.7314 40.0719 17.8082 39.0766 17.881 38.0971C17.9656 37.1196 17.9951 36.1518 18.0443 35.2175C18.0994 34.2831 18.1073 33.3782 18.123 32.5204C18.1289 32.0924 18.1368 31.6743 18.1427 31.2719C18.1368 30.8675 18.1328 30.4769 18.1289 30.102C18.1191 28.6023 18.0561 27.3597 17.9971 26.4882C17.942 25.6166 17.9007 25.12 17.9007 25.12C17.9007 25.12 17.8475 25.6166 17.7727 26.4862C17.7393 26.922 17.698 27.45 17.6507 28.0546C17.5996 28.6592 17.5425 29.3404 17.4796 30.0824C17.4186 30.8244 17.3516 31.6292 17.2808 32.4791C17.208 33.3291 17.1313 34.2242 17.0506 35.1527C16.966 36.0792 16.8794 37.0352 16.7908 38.0088C16.7062 38.9824 16.6157 39.9698 16.5075 40.9552C16.3343 42.9319 16.1061 44.9027 15.925 46.7557C15.7283 48.6088 15.5453 50.3362 15.3878 51.8182C15.0809 54.7901 14.8762 56.7708 14.8762 56.7708C14.8762 56.7708 15.4449 54.8529 16.0313 51.9164C16.1848 51.1842 16.3343 50.3872 16.4799 49.5431L16.4819 49.5412Z" fill="white"/>
<path d="M28.1368 36.5032C28.6012 36.5739 29.105 36.6583 29.6422 36.7191C30.1774 36.7878 30.7421 36.8605 31.3285 36.9115C32.4993 37.0352 33.7528 37.1058 35.0062 37.1706C35.634 37.1863 36.2597 37.202 36.8776 37.2177C37.4954 37.2275 38.1035 37.2158 38.6899 37.2158C39.8666 37.1922 40.9626 37.1529 41.9012 37.0803C42.8399 37.0273 43.621 36.937 44.1661 36.8762C44.7112 36.8094 45.0221 36.7721 45.0221 36.7721C45.0221 36.7721 44.7092 36.7564 44.1602 36.727C43.6132 36.7074 42.832 36.6799 41.8934 36.6485C40.9567 36.621 39.8666 36.5876 38.6958 36.5523C37.5269 36.5091 36.2813 36.4639 35.0358 36.4188C34.4139 36.3933 33.7902 36.3658 33.1782 36.3403C32.5662 36.3108 31.9621 36.2814 31.3797 36.2519C30.2128 36.1872 29.1227 36.1263 28.188 36.0753C26.3147 35.9516 25.0671 35.8692 25.0671 35.8692C25.0671 35.8692 25.3702 35.9555 25.9054 36.0772C26.4406 36.1989 27.21 36.354 28.1408 36.5032H28.1368Z" fill="white"/>
<path d="M23.0108 63.7059C23.4792 63.8472 24.0105 64.0062 24.5968 64.1515C25.1793 64.3105 25.8169 64.4538 26.4938 64.6049C27.1707 64.7443 27.885 64.8994 28.6307 65.0211C29.3765 65.1389 30.1439 65.2841 30.933 65.3705C31.3266 65.4196 31.724 65.4686 32.1215 65.5177C32.521 65.555 32.9224 65.5943 33.3238 65.6316C34.1267 65.7101 34.9315 65.7415 35.7245 65.7827C36.5155 65.8396 37.2987 65.8141 38.0543 65.8259C38.8099 65.8455 39.5399 65.7925 40.2306 65.767C40.5769 65.7493 40.9134 65.7415 41.2381 65.7199C41.5628 65.6885 41.8757 65.659 42.1767 65.6316C42.7789 65.5746 43.3279 65.5256 43.8139 65.4549C44.298 65.3803 44.721 65.3155 45.0693 65.2606C45.7639 65.1506 46.1575 65.076 46.1575 65.076C46.1575 65.076 45.7541 65.0839 45.0536 65.1133C44.7033 65.131 44.2783 65.1506 43.7903 65.1742C43.3023 65.1899 42.7513 65.1801 42.1531 65.1978C41.854 65.2036 41.5411 65.2095 41.2184 65.2154C40.8957 65.2115 40.5612 65.2076 40.2188 65.2056C39.5321 65.1919 38.8099 65.2017 38.0622 65.1624C37.3144 65.131 36.5431 65.1133 35.7599 65.0564C34.9767 65.0073 34.1798 64.9661 33.3868 64.8817C32.9893 64.8483 32.5918 64.815 32.1963 64.7816C31.8008 64.7365 31.4092 64.6933 31.0196 64.6481C30.2384 64.5657 29.4729 64.4636 28.7311 64.3674C27.9912 64.2595 27.275 64.1535 26.5961 64.0553C25.9211 63.9356 25.2777 63.8433 24.6893 63.7314C23.5087 63.5233 22.5248 63.3329 21.84 63.1818C21.4976 63.1072 21.2281 63.0483 21.0451 63.0071C20.8621 62.9639 20.7637 62.9423 20.7637 62.9423C20.7637 62.9423 21.1356 63.0974 21.8026 63.3212C22.1372 63.4311 22.5425 63.5626 23.0128 63.7039L23.0108 63.7059Z" fill="white"/>
</g>
<defs>
<clipPath id="clip0_1_55">
<rect width="77" height="69" fill="white"/>
</clipPath>
</defs>
</svg>
