<svg width="78" height="89" viewBox="0 0 78 89" fill="none" xmlns="http://www.w3.org/2000/svg">
<g clip-path="url(#clip0_1_44)">
<path d="M36.3476 65.0276C36.3476 38.57 32.5845 0 13.1956 0C12.9259 0 12.6601 0.0076467 12.3829 0.0229401C-12.5196 1.37258 6.34525 30.8927 15.3562 66.0943C15.3562 66.0943 19.9433 83.1656 20.1484 89H35.254C35.254 89 36.3476 71.447 36.3476 65.0276ZM42.8068 89H58.1174C58.1174 89 59.5908 74.4177 62.659 66.0293C71.6775 30.8545 90.5044 1.37258 65.6133 0.0229401C65.3398 0.0076467 65.074 0 64.8044 0V3.93805C65.0019 3.93805 65.1993 3.94188 65.4006 3.95335C71.218 4.26686 72.5281 6.22824 72.9572 6.87439C76.276 11.8409 71.7345 25.1232 66.9195 39.1894C62.2944 52.7087 56.6213 69.2944 55.0492 86.0828L46.0459 85.5934C44.8231 65.5705 44.8345 21.0399 57.1757 7.57788C59.4199 5.13094 61.9109 3.93805 64.793 3.93805V0C45.4079 0.00382335 41.8233 38.57 41.641 65.0238C41.5954 71.554 42.7954 89 42.7954 89H42.8068ZM12.5956 3.95717C12.8006 3.9457 12.9981 3.94188 13.1994 3.94188C16.0815 3.94188 18.5725 5.13094 20.8129 7.57788C33.1465 21.0284 33.1617 65.5705 31.9465 85.5972L22.9432 86.0866C21.3749 69.2944 15.698 52.7087 11.0729 39.1932C6.26171 25.1233 1.71637 11.8409 5.03519 6.87439C5.46429 6.23206 6.77815 4.27068 12.5918 3.95335L12.5956 3.95717ZM60.3654 76.3715C60.3654 76.3715 60.3654 76.36 60.3654 76.3523C60.4831 76.3676 60.6008 76.3829 60.7186 76.4021C60.6008 76.3906 60.4793 76.3829 60.3616 76.3715H60.3654Z" fill="white"/>
<path d="M64.2918 9.96365L64.0791 9.94836L63.9728 9.94071L63.7867 9.93307C63.4032 9.91777 63.0159 9.94836 62.6323 10.0095C61.0793 10.2619 59.7806 11.1298 58.8351 12.0818C57.8705 13.0415 57.1567 14.1082 56.5415 15.1864C55.3302 17.3542 54.5137 19.5947 53.815 21.8237C52.448 26.2932 51.6658 30.7665 51.0051 35.0869C50.3519 39.4073 49.9608 43.6053 49.638 47.5816C49.3115 51.5579 49.1406 55.3239 49.0115 58.7955C48.7609 65.7425 48.8026 71.5311 48.8824 75.58C48.9128 77.6064 48.9887 79.1969 49.0267 80.2789C49.076 81.3609 49.0988 81.9421 49.0988 81.9421C49.0988 81.9421 49.1292 81.3648 49.19 80.2828C49.2583 79.2007 49.357 77.6141 49.4861 75.5953C49.7482 71.5579 50.1469 65.7961 50.762 58.9064C51.0696 55.4616 51.4607 51.7376 51.9126 47.8072C52.2544 44.8632 52.6759 41.8122 53.1619 38.6847C52.9607 41.1584 52.9151 43.2459 52.9151 44.7715C52.9151 46.5799 52.9796 47.6122 52.9796 47.6122C52.9796 47.6122 53.1809 46.6028 53.5378 44.8365C53.891 43.0739 54.4036 40.5619 55.0682 37.5797C55.4099 36.0886 55.801 34.4828 56.2187 32.7929C56.6516 31.1068 57.1567 29.3442 57.6959 27.5396C58.2427 25.735 58.9034 23.9112 59.6363 22.1181C60.3881 20.3402 61.2425 18.5585 62.3324 17.1324C62.864 16.4251 63.4753 15.821 64.0563 15.5152C64.2006 15.4349 64.3411 15.3813 64.474 15.3393C64.5993 15.2972 64.7664 15.2743 64.8044 15.2628C64.8158 15.2552 64.9145 15.2628 64.9677 15.259H65.036C65.0588 15.259 65.0664 15.259 65.0702 15.259C65.112 15.3355 65.1955 15.5266 65.2297 15.7828C65.2866 16.1231 65.3018 16.5436 65.2866 16.9719C65.2525 17.8359 65.1158 18.7535 64.9373 19.652C64.5652 21.449 64.1057 23.223 63.6158 24.8862C63.1108 26.5494 62.621 28.1284 62.1463 29.5813C60.1755 35.4081 58.8616 39.2964 58.8616 39.2964C58.8616 39.2964 59.4312 38.4362 60.3312 36.8724C60.878 35.9204 61.5577 34.7084 62.3058 33.2746C59.4616 41.4643 57.2668 49.3174 55.9567 56.1536C54.5973 62.9974 54.0391 68.7936 53.8113 72.8425C53.6859 74.8689 53.6632 76.4594 53.6442 77.5452C53.6328 78.6311 53.629 79.2084 53.629 79.2084C53.629 79.2084 53.6935 78.6349 53.815 77.5567C53.9366 76.4785 54.153 74.9033 54.434 72.9075C54.7188 70.9079 55.1289 68.4915 55.6491 65.7387C56.1921 62.9859 56.8681 59.8966 57.7111 56.5588C58.5654 53.2211 59.6059 49.6386 60.802 45.8802C62.0134 42.1257 63.4184 38.2106 64.9107 34.1616C65.6664 32.1315 66.4372 30.0707 67.2157 27.9831C67.9941 25.8841 68.7536 23.7392 69.3991 21.4796C69.7181 20.3479 70.0029 19.1818 70.1889 17.943C70.3598 16.708 70.4699 15.3584 70.0408 13.8558C69.8206 13.1103 69.3953 12.338 68.7915 11.7415C68.1916 11.1412 67.4739 10.7398 66.7866 10.4913C66.0879 10.2428 65.4385 10.1013 64.7284 10.0172C64.5462 9.99042 64.4323 9.98659 64.2804 9.97512L64.2918 9.96365Z" fill="white"/>
<path d="M8.58571 21.472C9.23125 23.7316 9.9907 25.8765 10.7691 27.9755C11.5476 30.063 12.3184 32.1238 13.0741 34.154C14.5626 38.203 15.9714 42.1181 17.1828 45.8726C18.3789 49.631 19.4194 53.2134 20.2737 56.5512C21.1205 59.889 21.7965 62.9783 22.3357 65.7311C22.8597 68.4877 23.266 70.9041 23.5508 72.8999C23.8318 74.8995 24.0445 76.4747 24.1698 77.5491C24.2913 78.6273 24.3558 79.2008 24.3558 79.2008C24.3558 79.2008 24.352 78.6234 24.3406 77.5376C24.3217 76.4518 24.2989 74.8574 24.1736 72.8349C23.9457 68.7859 23.3875 62.9936 22.0281 56.1459C20.7142 49.3098 18.5232 41.4566 15.679 33.267C16.4233 34.7008 17.103 35.9128 17.6498 36.8648C18.5498 38.4247 19.1194 39.2888 19.1194 39.2888C19.1194 39.2888 17.8055 35.4043 15.8347 29.5736C15.3601 28.1208 14.8702 26.5417 14.3652 24.8786C13.8753 23.2154 13.4159 21.4414 13.0437 19.6444C12.869 18.7459 12.7285 17.8283 12.6944 16.9642C12.6792 16.536 12.6944 16.1193 12.7513 15.7752C12.7855 15.519 12.8652 15.3317 12.9108 15.2514C12.9146 15.2514 12.9222 15.2514 12.945 15.2514H13.0133C13.0627 15.2514 13.1652 15.2514 13.1766 15.2552C13.2146 15.2667 13.3817 15.2896 13.507 15.3317C13.6399 15.3775 13.7804 15.4272 13.9247 15.5075C14.5057 15.8096 15.117 16.4175 15.6487 17.1248C16.7385 18.5509 17.5929 20.3326 18.3447 22.1105C19.0776 23.9036 19.7383 25.7312 20.2851 27.532C20.8244 29.3366 21.3332 31.0992 21.7623 32.7853C22.1838 34.4752 22.5749 36.081 22.9129 37.5721C23.5774 40.5543 24.09 43.0663 24.4432 44.8288C24.7963 46.5952 25.0014 47.6046 25.0014 47.6046C25.0014 47.6046 25.0659 46.5723 25.0659 44.7638C25.0659 43.2383 25.0166 41.1508 24.8191 38.677C25.3089 41.8046 25.7266 44.8556 26.0684 47.7996C26.5203 51.73 26.9114 55.4539 27.219 58.8988C27.8341 65.7884 28.2329 71.5502 28.4949 75.5877C28.6202 77.6064 28.7227 79.1931 28.7911 80.2751C28.8518 81.3571 28.8822 81.9345 28.8822 81.9345C28.8822 81.9345 28.9088 81.3571 28.9543 80.2713C28.9923 79.1893 29.0683 77.5988 29.0986 75.5724C29.1784 71.5235 29.2201 65.7349 28.9695 58.7879C28.8442 55.3163 28.6695 51.5503 28.343 47.574C28.0202 43.5977 27.6329 39.3997 26.976 35.0793C26.319 30.7589 25.533 26.2894 24.166 21.8161C23.4673 19.587 22.6508 17.3466 21.4395 15.1787C20.8244 14.1005 20.1105 13.0338 19.146 12.0742C18.2004 11.126 16.9018 10.2542 15.3487 10.0019C14.9651 9.94073 14.5778 9.91014 14.1943 9.92544L14.0082 9.93308L13.9019 9.94073L13.6893 9.95602C13.5374 9.97132 13.4234 9.97132 13.2412 9.99808C12.5273 10.086 11.8818 10.2237 11.1831 10.4722C10.4957 10.7207 9.77806 11.1221 9.17809 11.7224C8.57432 12.315 8.14902 13.0912 7.92878 13.8367C7.49969 15.3393 7.6136 16.6889 7.78068 17.9239C7.96295 19.1627 8.25155 20.3288 8.57052 21.4605L8.58571 21.472Z" fill="white"/>
</g>
<defs>
<clipPath id="clip0_1_44">
<rect width="78" height="89" fill="white"/>
</clipPath>
</defs>
</svg>
